<svg id="Layer_1" data-name="Layer 1" xmlns="http://www.w3.org/2000/svg" viewBox="0 0 473 454.18"><defs><style>.cls-1{fill:#51a8b1;}.cls-2{fill:#fff;}.cls-3{fill:none;stroke:#fff;stroke-miterlimit:10;stroke-width:12px;}</style></defs><title>Data-Sense-Logo</title><path class="cls-1" d="M424.17,198a163.37,163.37,0,1,1-115.53,47.85A162.27,162.27,0,0,1,424.17,198m0-22c-102.38,0-185.38,83-185.38,185.38s83,185.37,185.38,185.37,185.38-83,185.38-185.37S526.55,176,424.17,176Z" transform="translate(-181 -176)"/><path class="cls-2" d="M205.89,403.16A12.9,12.9,0,1,1,193,416.06a12.92,12.92,0,0,1,12.89-12.9m0-12a24.9,24.9,0,1,0,24.9,24.9,24.9,24.9,0,0,0-24.9-24.9Z" transform="translate(-181 -176)"/><path class="cls-2" d="M298.36,353.37a12.9,12.9,0,1,1-12.89,12.9,12.92,12.92,0,0,1,12.89-12.9m0-12a24.9,24.9,0,1,0,24.9,24.9,24.89,24.89,0,0,0-24.9-24.9Z" transform="translate(-181 -176)"/><path class="cls-2" d="M397.94,412.94a12.9,12.9,0,1,1-12.89,12.9,12.91,12.91,0,0,1,12.89-12.9m0-12a24.9,24.9,0,1,0,24.89,24.9,24.89,24.89,0,0,0-24.89-24.9Z" transform="translate(-181 -176)"/><path class="cls-2" d="M536.64,294.69a12.9,12.9,0,1,1-12.9,12.9,12.91,12.91,0,0,1,12.9-12.9m0-12a24.9,24.9,0,1,0,24.89,24.9,24.9,24.9,0,0,0-24.89-24.9Z" transform="translate(-181 -176)"/><path class="cls-2" d="M629.11,226.23a12.9,12.9,0,1,1-12.9,12.9,12.91,12.91,0,0,1,12.9-12.9m0-12A24.9,24.9,0,1,0,654,239.13a24.9,24.9,0,0,0-24.89-24.9Z" transform="translate(-181 -176)"/><line class="cls-3" x1="46.23" y1="228.5" x2="101" y2="200"/><line class="cls-3" x1="135.14" y1="201.83" x2="198.27" y2="240.95"/><line class="cls-3" x1="236.5" y1="240.06" x2="339.64" y2="145.81"/><line class="cls-3" x1="371.64" y1="118.25" x2="431.21" y2="80.02"/><path class="cls-2" d="M216.05,629.78V589.31h14a21.21,21.21,0,0,1,8.53,1.6,17.32,17.32,0,0,1,6.12,4.33,18,18,0,0,1,3.68,6.41,24.57,24.57,0,0,1,1.23,7.84,24.17,24.17,0,0,1-1.37,8.35,17.8,17.8,0,0,1-3.94,6.38,17.62,17.62,0,0,1-6.18,4.11,21.44,21.44,0,0,1-8.07,1.45Zm28.39-20.29a20.4,20.4,0,0,0-.94-6.3,13.5,13.5,0,0,0-2.8-4.93,12.93,12.93,0,0,0-4.53-3.22,15.09,15.09,0,0,0-6.1-1.17h-8.89v31.35h8.89a15.32,15.32,0,0,0,6.19-1.19,12.44,12.44,0,0,0,4.5-3.31,14.63,14.63,0,0,0,2.74-5A20.2,20.2,0,0,0,244.44,609.49Z" transform="translate(-181 -176)"/><path class="cls-2" d="M280.4,589.31h4.34l16.53,40.47h-5.48L291,617.93H274l-4.73,11.85h-5.47Zm9.47,24.63-7.3-18.7-7.52,18.7Z" transform="translate(-181 -176)"/><path class="cls-2" d="M344.7,593.87h-14v35.91h-5.13V593.87h-14v-4.56H344.7Z" transform="translate(-181 -176)"/><path class="cls-2" d="M371.66,589.31H376l16.53,40.47h-5.47l-4.79-11.85h-17l-4.73,11.85h-5.47Zm9.47,24.63-7.3-18.7-7.53,18.7Z" transform="translate(-181 -176)"/><path class="cls-2" d="M433.79,597.81a8,8,0,0,0-1.82-1.54,15.88,15.88,0,0,0-2.57-1.34,18.16,18.16,0,0,0-3.1-1,16.07,16.07,0,0,0-3.51-.37q-4.73,0-6.92,1.76a5.88,5.88,0,0,0-2.2,4.85,5.42,5.42,0,0,0,.63,2.74,5.2,5.2,0,0,0,2,1.85,15,15,0,0,0,3.33,1.34c1.33.38,2.91.78,4.73,1.19a49.67,49.67,0,0,1,5.67,1.57,16.26,16.26,0,0,1,4.33,2.2,8.71,8.71,0,0,1,2.74,3.19,10.2,10.2,0,0,1,.94,4.62,10.59,10.59,0,0,1-1.14,5,10.05,10.05,0,0,1-3.11,3.53,13.37,13.37,0,0,1-4.64,2.06,24.88,24.88,0,0,1-5.82.65,26.81,26.81,0,0,1-8.86-1.45,24.88,24.88,0,0,1-7.61-4.25l2.45-4.33a13.69,13.69,0,0,0,2.37,1.94,20.42,20.42,0,0,0,3.3,1.74,24.82,24.82,0,0,0,4,1.25,20.44,20.44,0,0,0,4.48.48,12.43,12.43,0,0,0,6.72-1.53,5.69,5.69,0,0,0,1.63-7.5,6.46,6.46,0,0,0-2.25-2,17.1,17.1,0,0,0-3.68-1.51q-2.19-.66-5-1.34a51.33,51.33,0,0,1-5.41-1.6,14.78,14.78,0,0,1-3.91-2,7.78,7.78,0,0,1-2.36-2.91,9.67,9.67,0,0,1-.8-4.1,11.59,11.59,0,0,1,1.08-5.13,10.74,10.74,0,0,1,3-3.76,13.2,13.2,0,0,1,4.62-2.31,22.5,22.5,0,0,1,13.23.48,21,21,0,0,1,5.87,3.36Z" transform="translate(-181 -176)"/><path class="cls-2" d="M484.86,625.22v4.56H457.39V589.31h27v4.56H462.52V607h19v4.28h-19v14Z" transform="translate(-181 -176)"/><path class="cls-2" d="M509.66,598.89v30.89h-5.13V589.31h4l25.08,31.52V589.37h5.13v40.41H534.4Z" transform="translate(-181 -176)"/><path class="cls-2" d="M584.84,597.81a8,8,0,0,0-1.82-1.54,15.88,15.88,0,0,0-2.57-1.34,18.16,18.16,0,0,0-3.1-1,16.14,16.14,0,0,0-3.51-.37q-4.73,0-6.93,1.76a5.9,5.9,0,0,0-2.19,4.85,5.42,5.42,0,0,0,.63,2.74,5.17,5.17,0,0,0,2,1.85,15.35,15.35,0,0,0,3.34,1.34c1.33.38,2.91.78,4.73,1.19a49.67,49.67,0,0,1,5.67,1.57,16.26,16.26,0,0,1,4.33,2.2,8.71,8.71,0,0,1,2.74,3.19,10.2,10.2,0,0,1,.94,4.62,10.59,10.59,0,0,1-1.14,5,10.15,10.15,0,0,1-3.11,3.53,13.37,13.37,0,0,1-4.64,2.06,24.88,24.88,0,0,1-5.82.65,26.81,26.81,0,0,1-8.86-1.45,24.88,24.88,0,0,1-7.61-4.25l2.45-4.33a13.69,13.69,0,0,0,2.37,1.94,20.42,20.42,0,0,0,3.3,1.74,24.82,24.82,0,0,0,4,1.25,20.44,20.44,0,0,0,4.48.48,12.45,12.45,0,0,0,6.72-1.53,5.69,5.69,0,0,0,1.63-7.5,6.65,6.65,0,0,0-2.25-2,17.1,17.1,0,0,0-3.68-1.51c-1.46-.44-3.13-.89-5-1.34a50.63,50.63,0,0,1-5.41-1.6,14.78,14.78,0,0,1-3.91-2,7.78,7.78,0,0,1-2.36-2.91,9.52,9.52,0,0,1-.8-4.1,11.59,11.59,0,0,1,1.08-5.13,10.63,10.63,0,0,1,3-3.76,13,13,0,0,1,4.62-2.31,20.94,20.94,0,0,1,19.09,3.84Z" transform="translate(-181 -176)"/><path class="cls-2" d="M635.91,625.22v4.56H608.44V589.31h27v4.56H613.57V607h19v4.28h-19v14Z" transform="translate(-181 -176)"/></svg>