<svg id="Layer_1" data-name="Layer 1" xmlns="http://www.w3.org/2000/svg" viewBox="0 0 473 370.75"><defs><style>.cls-1{fill:#51a8b1;}.cls-2{fill:#fff;}.cls-3{fill:none;stroke:#fff;stroke-miterlimit:10;stroke-width:12px;}</style></defs><title>DataSenseLogo-NoFont</title><path class="cls-1" d="M424.17,198a163.37,163.37,0,1,1-115.53,47.85A162.27,162.27,0,0,1,424.17,198m0-22c-102.38,0-185.38,83-185.38,185.38s83,185.37,185.38,185.37,185.38-83,185.38-185.37S526.55,176,424.17,176Z" transform="translate(-181 -176)"/><path class="cls-2" d="M205.89,403.16A12.9,12.9,0,1,1,193,416.06a12.92,12.92,0,0,1,12.89-12.9m0-12a24.9,24.9,0,1,0,24.9,24.9,24.9,24.9,0,0,0-24.9-24.9Z" transform="translate(-181 -176)"/><path class="cls-2" d="M298.36,353.37a12.9,12.9,0,1,1-12.89,12.9,12.92,12.92,0,0,1,12.89-12.9m0-12a24.9,24.9,0,1,0,24.9,24.9,24.89,24.89,0,0,0-24.9-24.9Z" transform="translate(-181 -176)"/><path class="cls-2" d="M397.94,412.94a12.9,12.9,0,1,1-12.89,12.9,12.91,12.91,0,0,1,12.89-12.9m0-12a24.9,24.9,0,1,0,24.89,24.9,24.89,24.89,0,0,0-24.89-24.9Z" transform="translate(-181 -176)"/><path class="cls-2" d="M536.64,294.69a12.9,12.9,0,1,1-12.9,12.9,12.91,12.91,0,0,1,12.9-12.9m0-12a24.9,24.9,0,1,0,24.89,24.9,24.9,24.9,0,0,0-24.89-24.9Z" transform="translate(-181 -176)"/><path class="cls-2" d="M629.11,226.23a12.9,12.9,0,1,1-12.9,12.9,12.91,12.91,0,0,1,12.9-12.9m0-12A24.9,24.9,0,1,0,654,239.13a24.9,24.9,0,0,0-24.89-24.9Z" transform="translate(-181 -176)"/><line class="cls-3" x1="46.23" y1="228.5" x2="101" y2="200"/><line class="cls-3" x1="135.14" y1="201.83" x2="198.27" y2="240.95"/><line class="cls-3" x1="236.5" y1="240.06" x2="339.64" y2="145.81"/><line class="cls-3" x1="371.64" y1="118.25" x2="431.21" y2="80.02"/></svg>